<ttFont>
<head>
    <!-- Most of this table will be recalculated by the compiler -->
    <tableVersion value="1.0"/>
    <fontRevision value="1.004"/>
    <checkSumAdjustment value="0x48520669"/>
    <magicNumber value="0x5f0f3cf5"/>
    <flags value="00000000 00000011"/>
    <unitsPerEm value="1000"/>
    <created value="Mon Jun 15 05:18:06 2015"/>
    <modified value="Thu Jun  6 21:34:30 2019"/>
    <xMin value="-56"/>
    <yMin value="-549"/>
    <xMax value="1000"/>
    <yMax value="1323"/>
    <macStyle value="00000000 00000000"/>
    <lowestRecPPEM value="3"/>
    <fontDirectionHint value="2"/>
    <indexToLocFormat value="0"/>
    <glyphDataFormat value="0"/>
  </head>
              <CharString index="0">
                -108 -104 callgsubr
                -74 -98 callsubr
                -100 callgsubr
                -174 64 174 return
              </CharString>
              <CharString index="1">
                hlineto
                -245 vmoveto
                return
              </CharString>
              <CharString index="2">
                -73 callsubr
                227 hmoveto
                -88 89 88 -103 callsubr
                -88 91 88 hlineto
                return
              </CharString>
              <CharString index="3">
                hlineto
                245 vmoveto
                return
              </CharString>
              <CharString index="4">
                hlineto
                -233 vmoveto
                return
              </CharString>
              <CharString index="5">
                hstemhm
                74 55 81 63 -58 53 88 58 return
              </CharString>
              <CharString index="6">
                -294 rmoveto
                65 vlineto
                return
              </CharString>
              <CharString index="7">
                76 -96 -76 -104 callsubr
                76 -95 -76 hlineto
                return
              </CharString>
              <CharString index="8">
                -119 -69 119 return
              </CharString>
              <CharString index="9">
                -92 callsubr
                -81 return
              </CharString>
              <CharString index="10">
                -8 -2 -2 -8 vhcurveto
                return
              </CharString>
              <CharString index="11">
                rmoveto
                77 -96 -77 -104 callsubr
                77 -95 -77 hlineto
                return
              </CharString>
              <CharString index="12">
                -141 74 154 65 -154 return
              </CharString>
              <CharString index="13">
                64 -96 callgsubr
                return
              </CharString>
              <CharString index="14">
                -77 95 77 -106 callsubr
                -77 96 77 hlineto
                return
              </CharString>
              <CharString index="15">
                -136 -345 136 return
              </CharString>
              <CharString index="16">
                -107 callgsubr
                -9 return
              </CharString>
              <CharString index="17">
                8 -78 callsubr
                return
              </CharString>
              <CharString index="18">
                7 -80 callsubr
                return
              </CharString>
              <CharString index="19">
                -174 66 174 return
              </CharString>
              <CharString index="20">
                10 5 10 rrcurveto
                endchar
              </CharString>
              <CharString index="21">
                -11 -4 -3 -11 -1 vhcurveto
                -10 -37 0 1 return
              </CharString>
              <CharString index="22">
                -12 -4 -3 -12 -1 vhcurveto
                -12 -1 -39 0 return
              </CharString>
              <CharString index="23">
                8 -23 3 -17 rrcurveto
                return
              </CharString>
              <CharString index="24">
                vhcurveto
                17 -8 31 -21 return
              </CharString>
              <CharString index="25">
                -357 128 -77 -101 callgsubr
                -168 return
              </CharString>
              <CharString index="26">
                hmoveto
                -93 callsubr
                return
              </CharString>
              <CharString index="27">
                -17 -84 callsubr
                return
              </CharString>
              <CharString index="28">
                -83 callsubr
                13 return
              </CharString>
              <CharString index="29">
                -16 9 -24 3 -16 return
              </CharString>
              <CharString index="30">
                -152 -64 152 return
              </CharString>
              <CharString index="31">
                -210 hlineto
                -89 -6 -116 return
              </CharString>
              <CharString index="32">
                -79 callsubr
                -13 return
              </CharString>
              <CharString index="33">
                147 64 -147 return
              </CharString>
              <CharString index="34">
                86 -91 -86 -105 callgsubr
                86 -89 -86 hlineto
                return
              </CharString>
              <CharString index="35">
                -74 95 74 -106 callsubr
                -74 96 74 hlineto
                return
              </CharString>
              <CharString index="36">
                150 65 -150 return
              </CharString>
              <CharString index="0">
                -4 95 hstem
                136 89 vstem
                226 696 rmoveto
                -96 2 rlineto
                5 -24 1 -41 -23 vvcurveto
                -58 1 -120 10 -86 vhcurveto
                -257 27 90 -93 93 hhcurveto
                68 61 57 168 59 hvcurveto
                -63 72 rlineto
                -100 -26 -46 -102 -51 hhcurveto
                -70 -48 109 166 -16 hvcurveto
                -7 81 -1 91 1 62 1 26 3 46 4 24 rrcurveto
                516 -27 rmoveto
                -78 -27 94 -116 60 -196 17 -178 rlinecurve
                81 32 -14 167 -71 203 -89 115 rlinecurve
                return
              </CharString>
              <CharString index="1">
                hvcurveto
                -4 -46 -5 -50 -2 -50 rrcurveto
                -136 -62 -111 -131 -127 vvcurveto
                -85 51 -40 67 53 59 21 33 54 vhcurveto
                5 -20 6 -18 5 -17 73 22 rcurveline
                -8 25 -8 27 -8 28 84 71 80 109 55 140 rrcurveto
                93 -25 49 -68 -75 vvcurveto
                -128 -110 -92 -178 -19 vhcurveto
                43 -67 rlineto
                230 36 94 124 142 vvcurveto
                hintmask 11101101
                109 -74 92 -124 33 vhcurveto
                return
              </CharString>
              <CharString index="2">
                4 21 3 13 4 18 5 13 -84 2 rcurveline
                hintmask 11101011
                -12 -1 -19 -2 -16 vhcurveto
                -2 -21 -3 -26 -3 -29 rrcurveto
                -1 return
              </CharString>
              <CharString index="3">
                8 77 355 65 93 69 -66 69 hstemhm
                113 75 169 70 -56 59 393 79 hintmask 11101101
                return
              </CharString>
              <CharString index="4">
                hvcurveto
                -415 446 rmoveto
                -13 -76 112 -20 200 -20 110 -7 rlinecurve
                12 77 -97 return
              </CharString>
              <CharString index="0">
                0 1 20 hvcurveto
                -5 -45 -4 -49 -2 -49 rrcurveto
                -133 -60 -109 -129 -124 vvcurveto
                -82 51 -39 65 52 58 21 31 53 vhcurveto
                5 -19 5 -18 5 -16 72 21 rcurveline
                -8 24 -8 27 -7 27 81 69 78 107 54 137 rrcurveto
                90 -25 49 -66 -74 vvcurveto
                -124 -107 -90 -175 -19 vhcurveto
                42 -66 rlineto
                225 36 91 122 138 vvcurveto
                hintmask 1110110010000000
                107 -73 89 -120 33 vhcurveto
                -339 -128 rmoveto
                -72 9 -78 14 -69 vhcurveto
                -33 -48 -47 -17 -37 hhcurveto
                -37 -19 19 39 78 71 95 94 54 hvcurveto
                248 62 rmoveto
                -41 -107 -57 -77 -64 -61 rrcurveto
                -11 56 -6 59 61 vvcurveto
                38 vlineto
                17 45 57 14 62 hhcurveto
                return
              </CharString>
              <CharString index="1">
                4 94 hstem
                144 81 vstem
                233 688 rmoveto
                -94 2 rlineto
                4 -23 1 -40 -23 vvcurveto
                -57 1 -117 10 -84 vhcurveto
                -250 27 88 -92 90 hhcurveto
                68 58 56 165 59 hvcurveto
                -63 69 rlineto
                -97 -24 -45 -99 -51 hhcurveto
                -68 -46 106 162 -16 hvcurveto
                -7 79 -1 89 1 60 rrcurveto
                26 4 44 4 24 vhcurveto
                504 -26 rmoveto
                -77 -27 92 -113 59 -191 16 -175 rlinecurve
                80 31 -14 164 -69 198 -87 113 rlinecurve
                return
              </CharString>
              <CharString index="2">
                -5 4 28 5 25 4 21 2 12 4 18 5 12 -83 2 rcurveline
                hintmask 1110100110000000
                -11 -1 -19 -1 -15 vhcurveto
                -8 -75 rlineto
                -1 -21 return
              </CharString>
              <CharString index="3">
                17 75 347 63 91 67 -64 67 hstemhm
                121 74 165 69 -55 58 -47 65 366 76 hintmask 1110110010000000
                return
              </CharString>
              <CharString index="4">
                -29 vhcurveto
                44 -75 rlineto
                251 38 187 119 return
              </CharString>
              <CharString index="5">
                -210 20 -107 23 rlinecurve
                endchar
              </CharString>
        <CharString name=".notdef" fdSelectIndex="0">
          endchar
        </CharString>
        <CharString name="cid01454" fdSelectIndex="2">
          -104 callsubr
          611 440 rmoveto
          -43 -109 -59 -80 -65 -61 rrcurveto
          -10 57 -7 60 63 -99 callgsubr
          17 47 57 14 64 hhcurveto
          -238 -79 rmoveto
          -74 9 -79 14 -71 vhcurveto
          -35 -50 -48 -17 -38 hhcurveto
          -37 -19 20 40 80 73 98 96 55 hvcurveto
          348 117 rmoveto
          6 15 8 27 6 13 -80 20 rcurveline
          -1 -16 -5 -26 -4 -15 -3 -9 rcurveline
          1 -12 -12 0 -12 hhcurveto
          hintmask 11011011
          -50 -61 -9 -17 -55 hvcurveto
          3 42 3 42 4 38 121 6 132 13 104 17 -1 75 rcurveline
          -102 -23 -120 -13 -125 -6 4 29 4 25 -105 callsubr
          -22 -22 0 -22 hhcurveto
          -42 -87 7 5 -34 hvcurveto
          2 -75 rlineto
          -2 40 77 -4 43 hhcurveto
          19 20 0 1 21 -106 callsubr
          endchar
        </CharString>
        <CharString name="cid01456" fdSelectIndex="2">
          -107 callsubr
          endchar
        </CharString>
        <CharString name="cid01458" fdSelectIndex="2">
          477 75 106 77 hstem
          717 85 vstem
          717 335 rmoveto
          -178 -170 -94 -240 -30 vhcurveto
          47 -76 rlineto
          257 38 191 122 215 vvcurveto
          141 -105 79 -141 -113 -113 -32 -16 -70 vhcurveto
          -29 -6 -34 -6 -27 -3 25 -92 rcurveline
          24 9 29 12 30 8 rrcurveto
          17 59 97 34 114 hhcurveto
          102 67 -59 -83 -103 callsubr
          1 -215 20 -109 25 rlinecurve
          endchar
        </CharString>
        <CharString name="cid17373" fdSelectIndex="1">
          208 61 63 60 105 61 112 68 hstem
          124 70 193 71 33 76 133 72 cntrmask 11111101
          940 670 rmoveto
          68 -373 98 -76 -98 -367 -286 vlineto
          -144 -7 -202 -82 -142 -75 callsubr
          rrcurveto
          86 151 12 225 154 vvcurveto
          218 vlineto
          506 -173 rmoveto
          -105 -242 105 vlineto
          314 -165 rmoveto
          165 161 61 -161 87 -72 -87 -242 87 -71 -87 -159 -61 159 -165 vlineto
          369 -124 rmoveto
          -41 -53 -59 -41 -69 -33 -68 34 -56 42 -38 51 rrcurveto
          393 -94 callsubr
          -565 -61 -92 callgsubr
          -40 -15 40 -57 53 -48 64 -38 rlinecurve
          -94 -33 -106 -20 -108 -11 11 -16 15 -28 5 -18 124 15 122 27 106 44 95 -44 112 -28 122 -16 8 19 19 29 16 15 -107 11 -100 21 -87 31 86 49 70 64 45 86 rrcurveto
          endchar
        </CharString>
        <CharString name="cid17374" fdSelectIndex="1">
          204 61 64 60 105 62 112 69 hstem
          129 73 185 71 242 73 cntrmask 11111110
          202 668 rmoveto
          743 69 -347 hlineto
          -12 32 -20 41 -19 32 -73 -18 rcurveline
          14 -26 14 -33 12 -28 rrcurveto
          -385 -269 hlineto
          -149 -8 -212 -81 -150 vhcurveto
          18 -6 34 -16 14 -12 rrcurveto
          84 157 12 229 159 vvcurveto
          498 26 rmoveto
          -105 -242 105 vlineto
          315 -165 rmoveto
          165 161 62 -161 86 -73 -86 -242 86 -71 -86 -160 -62 160 -165 vlineto
          367 -125 rmoveto
          -43 -52 -62 -41 -71 -31 -71 33 -58 41 -40 50 rrcurveto
          410 65 -106 callgsubr
          -565 -61 -94 callgsubr
          -35 -14 41 -57 54 -46 66 -38 rlinecurve
          -93 -30 -105 -18 -106 -10 12 -16 14 -29 6 -17 123 14 121 25 106 41 99 -43 117 -29 125 -14 9 19 18 30 15 15 -110 10 -102 20 -88 30 88 48 73 63 46 85 rrcurveto
          endchar
        </CharString>
        <CharString name="cid26847" fdSelectIndex="1">
          338 68 7 69 100 68 49 70 hstemhm
          176 71 384 71 cntrmask 10101100
          cntrmask 01010000
          hintmask 10111100
          377 197 rmoveto
          -44 -14 -44 -13 -42 -12 rrcurveto
          hintmask 01111100
          255 -97 callgsubr
          217 134 70 -331 -70 126 -217 -99 callsubr
          -276 vlineto
          -49 -14 -45 -11 -36 -10 15 -72 rcurveline
          325 98 rlineto
          hintmask 10111100
          571 210 rmoveto
          68 -255 176 206 68 -206 186 -71 -186 -112 vlineto
          11 40 9 44 7 45 -69 12 rcurveline
          hintmask 01111100
          -17 -122 -32 -118 -53 -78 18 -8 29 -18 14 -11 25 40 21 50 19 56 rrcurveto
          130 hlineto
          hintmask 10111100
          -176 -252 -68 217 vlineto
          -62 -127 -106 -124 -106 -62 15 -13 24 -26 11 -17 96 65 97 113 66 125 rrcurveto
          -348 71 352 vlineto
          59 -117 82 -113 80 -66 13 19 24 25 16 13 -90 63 -95 119 -56 119 rrcurveto
          endchar
        </CharString>
        <CharString name="cid40016" fdSelectIndex="1">
          -75 53 -51 56 114 66 -43 56 67 56 -40 53 77 56 77 60 -49 56 76 64 hstemhm
          70 56 81 66 -58 50 90 57 46 55 113 55 56 55 79 61 cntrmask 100101101111001111000000
          cntrmask 001010100000111000000000
          cntrmask 010000010000000000000000
          hintmask 011010110111011111000000
          126 390 rmoveto
          hintmask 000010101010110000000000
          89 -91 -89 hlineto
          234 vmoveto
          89 -90 -89 hlineto
          229 hmoveto
          -90 90 90 hlineto
          -234 vmoveto
          -90 91 90 hlineto
          hintmask 001010001111010000000000
          -82 -147 rmoveto
          139 346 -139 76 -98 callgsubr
          108 -66 -108 -77 callsubr
          -76 -137 -346 137 -80 -84 callgsubr
          -88 callsubr
          -86 callgsubr
          hlineto
          hintmask 100101110000001110000000
          240 13 rmoveto
          83 113 -83 vlineto
          213 vmoveto
          -77 -113 77 vlineto
          168 56 rmoveto
          -223 -518 55 193 113 -88 callgsubr
          -7 -2 -3 -7 vhcurveto
          -50 hlineto
          6 -15 8 -24 1 -14 rrcurveto
          37 24 0 10 17 hvcurveto
          16 10 5 16 26 vvcurveto
          149 595 rmoveto
          -275 -60 275 hlineto
          -38 -98 rmoveto
          -55 -350 55 hlineto
          hintmask 010000001000000001000000
          79 -77 rmoveto
          -11 -4 -2 -11 -1 vhcurveto
          -11 -1 -37 0 -41 1 8 -16 8 -25 3 -15 rrcurveto
          58 35 1 8 24 hvcurveto
          22 11 7 17 32 vvcurveto
          465 -61 vlineto
          -214 372 rmoveto
          -47 -94 -95 -109 -101 -59 12 -17 17 -26 8 -18 101 64 91 102 50 88 56 -89 97 -99 92 -58 11 20 16 28 13 16 -93 51 -100 99 -62 101 rrcurveto
          endchar
        </CharString>
        <CharString name="cid40017" fdSelectIndex="1">
          -67 56 -53 53 103 65 -21 56 42 56 -11 53 54 54 -26 56 59 62 75 64 hstemhm
          75 58 71 66 -61 56 77 59 53 58 114 58 56 54 75 60 cntrmask 010101011111001111000000
          cntrmask 001010101000111000000000
          hintmask 000010101010110000000000
          133 386 rmoveto
          -100 callsubr
          209 -81 callsubr
          hintmask 001010001111010000000000
          -72 -152 rmoveto
          131 357 -131 75 149 64 -149 106 -66 -106 -148 -64 148 -75 -129 -357 129 -77 -103 callgsubr
          -168 66 168 -71 callsubr
          hlineto
          hintmask 010101010000001100000000
          242 35 rmoveto
          87 114 -87 vlineto
          222 vmoveto
          -82 -114 82 vlineto
          172 56 rmoveto
          -230 -546 58 212 114 -89 callgsubr
          -8 -3 -3 -8 -7 -21 0 1 -24 vhcurveto
          6 -16 8 -23 2 -15 38 -1 26 1 17 10 rrcurveto
          19 10 5 16 28 vvcurveto
          hintmask 100000001000000011000000
          185 4 rmoveto
          -86 callsubr
          -40 hvcurveto
          -89 callsubr
          57 36 1 10 21 hvcurveto
          23 -102 callgsubr
          482 -60 vlineto
          -75 -38 rmoveto
          -54 -369 54 hlineto
          -116 761 rmoveto
          -57 -98 -105 -88 -110 -50 16 -13 17 -20 10 -14 19 9 18 10 18 12 rrcurveto
          -59 361 62 -356 vlineto
          65 42 62 53 48 61 70 -83 80 -58 93 -49 9 18 18 21 15 13 -97 44 -86 55 -69 84 6 9 5 8 5 8 rrcurveto
          endchar
        </CharString>
        <CharString name="cid40018" fdSelectIndex="1">
          -68 56 -53 55 102 65 -34 55 56 56 -22 55 63 54 -31 55 71 56 -53 58 70 64 hstemhm
          77 58 70 68 -61 54 74 59 61 58 113 57 60 54 64 56 cntrmask 100101010100011111100000
          cntrmask 001010101011100000000000
          hintmask 001010101001011000000000
          135 386 -96 callsubr
          205 hmoveto
          -72 callsubr
          80 -101 callsubr
          hintmask 001010001011101000000000
          -147 77 126 357 -128 75 -74 callsubr
          106 -65 -106 -150 -64 150 -75 -129 -82 callsubr
          68 -91 callgsubr
          hintmask 100101010100000111000000
          243 86 rmoveto
          1 26 1 27 23 vvcurveto
          14 113 -90 vlineto
          231 vmoveto
          -86 -113 86 vlineto
          170 55 rmoveto
          -228 -76 callsubr
          -53 -87 vhcurveto
          14 -6 24 -20 11 -11 35 57 17 72 9 69 rrcurveto
          120 -123 -91 callsubr
          -30 -1 1 -34 vhcurveto
          -90 callsubr
          rrcurveto
          46 30 1 10 20 hvcurveto
          20 10 6 17 30 vvcurveto
          138 596 rmoveto
          -268 -58 268 hlineto
          -24 -92 rmoveto
          -54 -357 54 hlineto
          hintmask 010000001000000000100000
          64 -83 rmoveto
          -85 callsubr
          -46 1 -85 callgsubr
          rrcurveto
          59 37 0 10 24 hvcurveto
          23 10 6 17 33 vvcurveto
          476 -56 vlineto
          -188 362 rmoveto
          -55 -106 -102 -100 -107 -56 17 -14 20 -22 11 -17 86 51 80 74 60 86 65 -88 76 -63 90 -54 10 19 18 21 17 14 -95 51 -82 61 -66 91 6 10 6 -87 callsubr
        </CharString>
        <CharString name="cid61767" fdSelectIndex="1">
          -77 57 117 66 81 56 79 58 -46 53 64 61 -36 56 74 65 2 65 -102 callsubr
          40 56 42 11 62 57 cntrmask 1110101101100101
          cntrmask 1001010010011010
          hintmask 0010101001011000
          129 391 rmoveto
          -105 callsubr
          hintmask 0010010010101010
          -82 -147 rmoveto
          140 283 hlineto
          15 -11 16 -19 9 -14 37 23 32 26 29 26 rrcurveto
          -50 261 61 -250 vlineto
          52 51 39 55 28 55 rrcurveto
          16 hlineto
          48 -98 81 -87 83 -52 12 15 26 21 17 11 -90 50 -92 97 -41 -87 callgsubr
          -254 -65 -93 callgsubr
          hintmask 1111001101101111
          -39 -69 -64 -72 -90 -54 rrcurveto
          54 -95 callsubr
          108 -63 -107 callsubr
          -86 callgsubr
          vlineto
          236 15 rmoveto
          119 vlineto
          33 -20 36 -28 19 -21 27 25 rcurveline
          -123 vlineto
          -22 23 -36 28 -32 17 rrcurveto
          90 181 rmoveto
          -107 vlineto
          -22 21 -35 26 -31 15 -27 -23 rcurveline
          68 vlineto
          172 58 rmoveto
          -228 -513 56 236 hlineto
          33 -22 34 -30 18 -22 30 26 rcurveline
          -122 vlineto
          -97 callsubr
          -8 -1 -25 0 -29 1 8 -17 7 -25 2 -15 rrcurveto
          42 28 0 11 19 hvcurveto
          18 9 5 18 28 vvcurveto
          73 461 rmoveto
          -13 -65 -31 -105 -29 -82 43 -96 38 -109 13 -70 58 17 rcurveline
          -16 66 -40 107 -39 86 25 74 30 91 19 74 rrcurveto
          68 12 rmoveto
          -16 -65 -36 -105 -32 -82 51 -95 44 -110 18 -70 57 17 rcurveline
          -20 66 -47 108 -45 85 28 74 33 89 22 75 rrcurveto
          endchar
        </CharString>
        <CharString name="cid65167" fdSelectIndex="3">
          -104 callsubr
          700 493 rmoveto
          6 14 8 26 6 13 -78 19 rcurveline
          -2 -16 -4 -24 -4 -15 -3 -9 rcurveline
          1 -11 -12 0 -12 hhcurveto
          hintmask 1101101010000000
          -48 -60 -9 -16 -54 hvcurveto
          3 41 3 40 4 38 118 6 129 12 101 17 -1 73 rcurveline
          hintmask 1101100110000000
          -99 -22 -117 -14 -123 -105 callsubr
          -22 0 -21 hhcurveto
          -42 -84 7 5 -35 hvcurveto
          3 -74 rlineto
          hintmask 1110101010000000
          -2 40 74 -3 43 hhcurveto
          18 20 -107 callsubr
          endchar
        </CharString>
        <CharString name="cid65169" fdSelectIndex="3">
          -106 callsubr
          endchar
        </CharString>
        <CharString name="cid65171" fdSelectIndex="3">
          474 74 103 76 hstem
          711 84 vstem
          711 336 rmoveto
          -173 -163 -93 -235 -103 callsubr
          210 vvcurveto
          138 -102 77 -138 -110 -111 -31 -16 -69 vhcurveto
          -27 -6 -34 -6 -27 -2 24 -90 rcurveline
          25 8 28 12 29 8 rrcurveto
          17 58 95 32 110 hhcurveto
          101 64 -57 -81 hvcurveto
          -405 435 rmoveto
          -12 -74 109 -19 196 -20 107 -7 rlinecurve
          12 76 -95 1 -102 callsubr
        </CharString>
      <CharString index="0">
        hlineto
        -9 -3 -3 -9 return
      </CharString>
      <CharString index="1">
        rmoveto
        -90 callgsubr
        return
      </CharString>
      <CharString index="2">
        hlineto
        233 vmoveto
        return
      </CharString>
      <CharString index="3">
        -155 -65 155 return
      </CharString>
      <CharString index="4">
        -157 -65 157 return
      </CharString>
      <CharString index="5">
        10 7 16 34 vvcurveto
        return
      </CharString>
      <CharString index="6">
        -158 -65 158 return
      </CharString>
      <CharString index="7">
        -168 -66 168 return
      </CharString>
      <CharString index="8">
        13 0 13 13 vvcurveto
        return
      </CharString>
      <CharString index="9">
        160 64 -160 return
      </CharString>
      <CharString index="10">
        116 69 -116 return
      </CharString>
      <CharString index="11">
        rmoveto
        -95 callgsubr
        return
      </CharString>
      <CharString index="12">
        -13 -3 rlineto
        return
      </CharString>
      <CharString index="13">
        131 hlineto
        return
      </CharString>
      <CharString index="14">
        119 hlineto
        return
      </CharString>
      <CharString index="15">
        154 hlineto
        return
      </CharString>
      <CharString index="16">
        168 hlineto
        return
      </CharString>
      <CharString index="17">
        -14 -4 rlineto
        return
      </CharString>
      <CharString index="18">
        -136 hlineto
        return
      </CharString>
      <CharString index="19">
        -132 hlineto
        return
      </CharString>
      <CharString index="20">
        108 rrcurveto
        return
      </CharString>
      <CharString index="21">
        157 66 -157 return
      </CharString>
      <CharString index="22">
        8 -16 9 -23 3 -16 return
      </CharString>
      <CharString index="23">
        -164 -66 164 return
      </CharString>
</ttFont>
